<svg xmlns="http://www.w3.org/2000/svg" viewBox="0 0 24 24" role="img" aria-label="واتساپ">
  <path fill="currentColor" d="M20.52 3.48A11.94 11.94 0 0 0 12.03 0C5.42 0 .04 5.38.04 12c0 2.12.55 4.18 1.59 6L0 24l6.16-1.62A11.92 11.92 0 0 0 12.03 24h.01C18.65 24 24 18.62 24 12c0-3.2-1.25-6.2-3.48-8.52Zm-8.48 18.5h-.01a9.93 9.93 0 0 1-5.07-1.39l-.36-.21-3.65.96.98-3.56-.24-.37A9.94 9.94 0 1 1 12.04 21.98Zm5.45-7.45c-.3-.15-1.78-.88-2.06-.98-.28-.1-.48-.15-.68.15-.2.3-.78.98-.96 1.18-.18.2-.36.22-.66.08-.3-.15-1.27-.47-2.42-1.49-.9-.8-1.5-1.78-1.68-2.08-.18-.3-.02-.46.13-.61.14-.14.3-.36.44-.54.15-.18.2-.3.3-.5.1-.2.05-.38-.02-.54-.08-.15-.68-1.64-.93-2.25-.25-.59-.5-.51-.68-.52h-.58c-.2 0-.53.08-.8.38-.28.3-1.06 1.03-1.06 2.51s1.08 2.91 1.23 3.11c.15.2 2.12 3.24 5.14 4.55.72.31 1.28.5 1.72.64.72.23 1.37.2 1.88.12.57-.08 1.78-.73 2.03-1.44.25-.71.25-1.32.18-1.44-.07-.12-.27-.2-.57-.35Z"/>
</svg>